<svg width="800" height="800" viewBox="0 0 800 800" fill="none" xmlns="http://www.w3.org/2000/svg">
<g clip-path="url(#clip0_602_2)">
<path d="M305.078 172.492C304.953 172.508 304.836 172.497 304.727 172.461C304.615 172.427 304.506 172.412 304.407 172.417C304.307 172.423 304.222 172.448 304.156 172.492C302.313 173.732 300.518 175.034 298.773 176.398C298.586 176.547 298.516 176.875 298.906 176.609C300.276 175.677 301.68 174.789 303.117 173.945C303.263 173.862 303.438 173.685 303.641 173.414C303.917 173.055 304.331 172.922 304.883 173.016" stroke="#1A1A1A" stroke-width="2"/>
<path d="M304.883 173.016L304.898 267.734C304.898 267.784 304.908 267.833 304.928 267.879C304.948 267.924 304.978 267.965 305.015 267.998C305.052 268.031 305.095 268.056 305.143 268.071C305.19 268.086 305.24 268.091 305.289 268.086C334.219 264.883 360.359 280.289 374.594 305.063C374.613 305.098 374.624 305.139 374.624 305.18C374.624 305.221 374.614 305.26 374.595 305.295C374.576 305.33 374.549 305.359 374.516 305.378C374.482 305.398 374.445 305.407 374.406 305.406C344.411 305.646 314.417 305.706 284.422 305.586C274.359 305.547 262.234 305.758 251.172 305.625C251.138 305.624 251.105 305.614 251.076 305.596C251.048 305.578 251.024 305.551 251.009 305.52C250.993 305.488 250.985 305.453 250.986 305.416C250.988 305.38 250.998 305.344 251.016 305.312C257.328 294.312 265.841 285.44 276.555 278.695C276.652 278.636 276.733 278.548 276.789 278.44C276.845 278.332 276.875 278.207 276.875 278.078L276.992 197.125C276.992 197.12 277.047 196.87 277.156 196.375C277.188 196.234 277.185 196.086 277.148 195.93" stroke="#838383" stroke-width="2"/>
<path d="M277.148 195.93C280.023 192.784 283.115 189.859 286.422 187.156C286.625 186.99 286.612 186.979 286.383 187.125C282.695 189.5 279.497 192.425 276.789 195.898" stroke="#1A1A1A" stroke-width="2"/>
<path d="M276.789 195.898C242.328 231.547 232.594 279.453 238.961 327.398C243.664 362.784 248.688 396.615 254.031 428.891C254.051 429.005 254.109 429.108 254.193 429.183C254.278 429.257 254.383 429.297 254.492 429.297H304.492C304.59 429.297 304.683 429.338 304.752 429.411C304.821 429.485 304.859 429.584 304.859 429.687L305.047 457.031C305.047 457.137 305.004 457.238 304.928 457.313C304.852 457.388 304.748 457.43 304.641 457.43L259.18 457.422C259.123 457.422 259.068 457.436 259.017 457.463C258.966 457.489 258.921 457.527 258.886 457.575C258.85 457.622 258.824 457.678 258.81 457.738C258.796 457.798 258.794 457.861 258.805 457.922C260.305 467.063 261.846 476.055 263.43 484.898C269.313 517.789 284.844 549.008 307.367 573.687C321.779 589.484 340.117 608.456 362.383 630.602C362.472 630.691 362.577 630.762 362.692 630.81C362.808 630.858 362.931 630.883 363.055 630.883C391.242 631.148 409.401 631.193 417.531 631.016C426.094 630.828 432.948 630.839 438.094 631.047C438.236 631.054 438.374 631.036 438.498 630.992C438.622 630.949 438.729 630.883 438.812 630.797L456.164 613.391C456.258 613.297 456.332 613.187 456.382 613.067C456.431 612.948 456.456 612.821 456.453 612.695C456.203 534.078 456.602 455.43 456.656 376.805C456.656 376.695 456.696 376.59 456.766 376.512C456.836 376.434 456.932 376.391 457.031 376.391L483.844 376.406C483.933 376.406 484.018 376.443 484.081 376.509C484.144 376.575 484.18 376.665 484.18 376.758V403.32C484.18 403.426 484.2 403.527 484.237 403.602C484.274 403.677 484.323 403.719 484.375 403.719L550.781 403.711C550.901 403.711 551.018 403.663 551.111 403.578C551.204 403.492 551.267 403.373 551.289 403.242C555.451 376.94 559.198 350.581 562.531 324.164C564.023 312.344 564.516 302.031 564.047 290.82C562.375 250.258 544.68 211.258 513.711 184.922C504.294 176.911 493.594 169.443 481.609 162.516C479.563 161.336 477.805 161.641 475.578 161.633C425.036 161.576 374.471 161.531 323.883 161.5C319.758 161.5 308.781 169.875 305.078 172.492" stroke="#838383" stroke-width="2"/>
<path d="M276.789 195.898L277.148 195.93" stroke="#8E8E8E" stroke-width="2"/>
<path d="M304.883 173.016L305.078 172.492" stroke="#8E8E8E" stroke-width="2"/>
<path d="M278.953 277.391C286.51 273.614 294.398 270.768 302.617 268.851C302.852 268.796 303.04 268.684 303.141 268.539C303.333 268.258 303.198 268.13 302.734 268.156C300.641 268.255 296.411 269.497 290.047 271.883C285.38 273.633 281.562 275.456 278.594 277.351C278.323 277.529 278.323 277.641 278.594 277.687C278.74 277.713 278.859 277.614 278.953 277.391Z" stroke="#1A1A1A" stroke-width="2"/>
<path d="M484.689 404.823C484.69 404.719 484.649 404.619 484.576 404.546C484.503 404.472 484.404 404.43 484.301 404.43L484.269 404.43C484.218 404.429 484.167 404.439 484.12 404.459C484.072 404.478 484.029 404.507 483.993 404.543C483.956 404.579 483.927 404.622 483.907 404.669C483.887 404.716 483.877 404.767 483.877 404.818L483.748 429.365C483.748 429.468 483.788 429.568 483.861 429.642C483.934 429.715 484.033 429.757 484.137 429.758L484.168 429.758C484.219 429.758 484.27 429.748 484.318 429.729C484.365 429.709 484.408 429.681 484.445 429.645C484.481 429.609 484.51 429.566 484.53 429.518C484.55 429.471 484.56 429.42 484.561 429.369L484.689 404.823Z" stroke="#1A1A1A" stroke-width="2"/>
<path d="M484.328 430.719C484.289 430.719 484.251 430.754 484.223 430.817C484.195 430.88 484.18 430.966 484.18 431.055V585.5C484.18 585.781 484.266 585.833 484.438 585.656C511.836 558.383 530.664 526.539 537.906 488.094C540.005 476.953 543.047 457.945 547.031 431.07C547.039 431.021 547.035 430.971 547.018 430.924C547.002 430.876 546.974 430.832 546.936 430.794C546.898 430.756 546.851 430.726 546.799 430.705C546.747 430.684 546.69 430.672 546.633 430.672L484.328 430.719Z" stroke="#838383" stroke-width="2"/>
<path d="M254.617 431.301C254.613 431.274 254.604 431.249 254.59 431.226C254.576 431.203 254.558 431.183 254.536 431.168C254.515 431.152 254.49 431.141 254.464 431.134C254.438 431.128 254.411 431.127 254.385 431.131L254.292 431.145C254.266 431.149 254.241 431.159 254.218 431.172C254.195 431.186 254.175 431.204 254.16 431.226C254.144 431.247 254.133 431.272 254.126 431.298C254.12 431.324 254.119 431.351 254.123 431.377L257.852 455.465C257.856 455.491 257.865 455.517 257.879 455.54C257.893 455.562 257.911 455.582 257.933 455.598C257.954 455.614 257.979 455.625 258.004 455.631C258.03 455.638 258.057 455.639 258.084 455.635L258.176 455.62C258.203 455.616 258.228 455.607 258.251 455.593C258.274 455.579 258.293 455.561 258.309 455.54C258.325 455.518 258.336 455.494 258.343 455.468C258.349 455.442 258.35 455.415 258.346 455.389L254.617 431.301Z" stroke="#1A1A1A" stroke-width="2"/>
<path d="M476.758 593.555C475.602 594.268 474.646 595.185 473.891 596.305C473.646 596.669 473.677 596.695 473.984 596.383L476.758 593.555Z" stroke="#1A1A1A" stroke-width="2"/>
<path d="M476.758 593.555C477.232 593.3 477.63 592.964 477.953 592.547C478.156 592.292 478.104 592.221 477.797 592.336C477.286 592.529 476.94 592.935 476.758 593.555Z" stroke="#1A1A1A" stroke-width="2"/>
<path d="M467.156 603.398C467.255 603.32 467.336 603.227 467.398 603.117C467.57 602.81 467.497 602.745 467.18 602.922C466.763 603.156 466.435 603.476 466.195 603.883C466.07 604.096 466.143 604.169 466.414 604.102C466.549 604.065 466.661 603.982 466.75 603.852C466.87 603.669 467.005 603.518 467.156 603.398Z" stroke="#1A1A1A" stroke-width="2"/>
<path d="M458.547 611.477C458.391 611.628 458.271 611.766 458.187 611.891C457.901 612.344 457.945 612.372 458.32 611.977C461.18 608.997 461.255 608.831 458.547 611.477Z" stroke="#1A1A1A" stroke-width="2"/>
<path d="M503.914 188.812C503.914 188.759 503.893 188.707 503.855 188.669C503.816 188.631 503.765 188.609 503.711 188.609H402.539C402.485 188.609 402.434 188.631 402.395 188.669C402.357 188.707 402.336 188.759 402.336 188.812V215.625C402.336 215.679 402.357 215.731 402.395 215.769C402.434 215.807 402.485 215.828 402.539 215.828H503.711C503.765 215.828 503.816 215.807 503.855 215.769C503.893 215.731 503.914 215.679 503.914 215.625V188.812Z" stroke="#838383" stroke-width="2"/>
<path d="M414.5 463.625C414.443 395.766 414.43 327.909 414.461 260.055C414.461 257.195 414.164 253.687 414.203 250.531C414.204 250.485 414.193 250.438 414.169 250.395C414.145 250.351 414.109 250.312 414.064 250.278C414.019 250.245 413.965 250.218 413.906 250.2C413.847 250.182 413.783 250.172 413.719 250.172L386.914 250.187C386.8 250.187 386.691 250.229 386.61 250.304C386.53 250.379 386.484 250.48 386.484 250.586L386.328 463.672C386.328 463.721 386.318 463.769 386.298 463.814C386.279 463.859 386.25 463.9 386.213 463.934C386.177 463.969 386.134 463.995 386.086 464.013C386.039 464.031 385.988 464.04 385.937 464.039L354.297 463.812C353.818 463.807 353.766 463.945 354.141 464.227L385.875 488.156C386.077 488.309 386.24 488.506 386.353 488.731C386.465 488.956 386.524 489.203 386.523 489.453V515.43C386.523 515.669 386.628 515.706 386.836 515.539C408.518 498.164 430.396 481.039 452.469 464.164C452.714 463.982 452.737 463.891 452.539 463.891L414.844 464.023C414.753 464.023 414.665 463.981 414.601 463.907C414.536 463.832 414.5 463.731 414.5 463.625Z" stroke="#838383" stroke-width="2"/>
<path d="M551.563 305.055C521.5 256.453 457.312 256.133 427.531 305.289C427.38 305.534 427.451 305.656 427.742 305.656C468.93 305.672 510.141 305.789 551.383 305.391C551.643 305.391 551.703 305.279 551.563 305.055Z" stroke="#838383" stroke-width="2"/>
<path d="M250.305 337.359C261.891 365.531 290.211 382.125 320.25 379.445C345.5 377.203 366.656 360.594 376.93 337.734C376.972 337.642 376.989 337.541 376.981 337.441C376.973 337.34 376.94 337.242 376.884 337.158C376.828 337.073 376.751 337.003 376.661 336.955C376.57 336.907 376.469 336.882 376.367 336.883L250.586 336.898C250.534 336.898 250.484 336.911 250.439 336.936C250.394 336.962 250.355 336.999 250.328 337.045C250.3 337.09 250.283 337.143 250.279 337.198C250.275 337.253 250.284 337.308 250.305 337.359Z" stroke="#838383" stroke-width="2"/>
<path d="M428.523 339.258C453.914 387.859 521.883 387.367 547.664 339.554C547.684 339.518 547.695 339.477 547.696 339.435C547.696 339.393 547.686 339.352 547.666 339.316C547.647 339.28 547.618 339.25 547.583 339.229C547.549 339.207 547.509 339.196 547.469 339.195C542.078 339.034 534.768 339.034 525.539 339.195C511.831 339.44 481.393 339.409 434.227 339.101C431.508 339.086 429.674 339.036 428.727 338.953C428.471 338.932 428.404 339.034 428.523 339.258Z" stroke="#838383" stroke-width="2"/>
<path d="M343.516 543.25C351.281 543.641 358.68 543.383 365.336 543.367C394.133 543.289 422.937 543.351 451.734 543.305C451.995 543.305 452.034 543.211 451.852 543.023C422.258 512.867 373.07 512.391 343.414 543.008C343.268 543.159 343.302 543.239 343.516 543.25Z" stroke="#838383" stroke-width="2"/>
<path d="M414.75 465.487C414.75 465.46 414.745 465.434 414.735 465.409C414.725 465.384 414.71 465.362 414.691 465.343C414.673 465.324 414.651 465.309 414.626 465.298C414.601 465.288 414.575 465.282 414.548 465.282L414.517 465.282C414.49 465.282 414.464 465.287 414.439 465.297C414.414 465.307 414.392 465.321 414.373 465.34C414.354 465.359 414.339 465.381 414.328 465.406C414.318 465.43 414.312 465.456 414.312 465.483L414.094 490.482C414.094 490.509 414.099 490.535 414.109 490.56C414.119 490.585 414.134 490.607 414.152 490.626C414.171 490.645 414.193 490.66 414.218 490.671C414.242 490.681 414.269 490.687 414.295 490.687L414.327 490.687C414.353 490.688 414.38 490.683 414.405 490.673C414.429 490.663 414.452 490.648 414.471 490.629C414.49 490.61 414.505 490.588 414.515 490.564C414.526 490.539 414.531 490.513 414.532 490.486L414.75 465.487Z" stroke="#1A1A1A" stroke-width="2"/>
<path d="M0 400C0 179.086 179.086 0 400 0V0C620.914 0 800 179.086 800 400V400C800 620.914 620.914 800 400 800V800C179.086 800 0 620.914 0 400V400ZM305.365 172.289C305.175 172.424 304.948 172.535 304.727 172.461V172.461C304.615 172.427 304.506 172.412 304.407 172.417C304.307 172.423 304.222 172.448 304.156 172.492C302.313 173.732 300.518 175.034 298.773 176.398C298.586 176.547 298.516 176.875 298.906 176.609C300.276 175.677 301.68 174.789 303.117 173.945C303.263 173.862 303.438 173.685 303.641 173.414V173.414C304.125 172.783 304.883 173.598 304.883 174.394L304.898 267.734C304.898 267.784 304.908 267.833 304.928 267.879C304.948 267.924 304.978 267.965 305.015 267.998C305.052 268.031 305.095 268.056 305.142 268.071C305.19 268.086 305.24 268.091 305.289 268.086C334.219 264.883 360.359 280.289 374.594 305.063C374.613 305.098 374.624 305.139 374.624 305.18C374.624 305.221 374.614 305.26 374.595 305.295C374.576 305.33 374.549 305.359 374.516 305.378C374.482 305.398 374.445 305.407 374.406 305.406C344.411 305.646 314.417 305.706 284.422 305.586C274.359 305.547 262.234 305.758 251.172 305.625C251.138 305.624 251.105 305.614 251.076 305.596C251.048 305.578 251.024 305.551 251.009 305.52C250.993 305.488 250.985 305.453 250.986 305.416C250.988 305.38 250.998 305.344 251.016 305.312C257.328 294.312 265.841 285.44 276.555 278.695C276.652 278.636 276.733 278.548 276.789 278.44C276.845 278.332 276.875 278.207 276.875 278.078L276.992 197.125C276.992 197.12 277.047 196.87 277.156 196.375V196.375C277.217 196.101 277.262 195.805 277.452 195.599C280.241 192.579 283.231 189.764 286.422 187.156C286.625 186.99 286.612 186.979 286.383 187.125C282.695 189.5 279.497 192.424 276.789 195.898C242.328 231.547 232.594 279.453 238.961 327.398C243.664 362.784 248.688 396.615 254.031 428.891C254.051 429.005 254.109 429.108 254.193 429.183C254.278 429.257 254.383 429.297 254.492 429.297H304.492C304.59 429.297 304.683 429.338 304.752 429.411C304.821 429.485 304.859 429.584 304.859 429.688L305.047 457.031C305.047 457.137 305.004 457.238 304.928 457.313C304.852 457.388 304.748 457.43 304.641 457.43L259.18 457.422C259.123 457.422 259.068 457.436 259.017 457.463C258.966 457.489 258.921 457.527 258.886 457.575C258.85 457.622 258.824 457.678 258.81 457.738C258.796 457.798 258.794 457.861 258.805 457.922C260.305 467.063 261.846 476.055 263.43 484.898C269.313 517.789 284.844 549.008 307.367 573.688C321.779 589.484 340.117 608.456 362.383 630.602C362.472 630.691 362.577 630.762 362.692 630.81C362.808 630.858 362.931 630.883 363.055 630.883C391.242 631.148 409.401 631.193 417.531 631.016C426.094 630.828 432.948 630.839 438.094 631.047C438.236 631.054 438.374 631.036 438.498 630.992C438.622 630.949 438.729 630.883 438.812 630.797L456.164 613.391C456.258 613.297 456.332 613.187 456.382 613.067C456.431 612.948 456.456 612.821 456.453 612.695C456.203 534.078 456.602 455.43 456.656 376.805C456.656 376.695 456.696 376.59 456.766 376.512C456.836 376.434 456.932 376.391 457.031 376.391L483.844 376.406C483.933 376.406 484.018 376.443 484.081 376.509C484.144 376.575 484.18 376.665 484.18 376.758V403.32C484.18 403.426 484.2 403.527 484.237 403.602C484.274 403.677 484.323 403.719 484.375 403.719L550.781 403.711C550.901 403.711 551.018 403.663 551.111 403.578C551.204 403.492 551.267 403.373 551.289 403.242C555.451 376.94 559.198 350.581 562.531 324.164C564.023 312.344 564.516 302.031 564.047 290.82C562.375 250.258 544.68 211.258 513.711 184.922C504.294 176.911 493.594 169.443 481.609 162.516C479.563 161.336 477.805 161.641 475.578 161.633C425.036 161.576 374.471 161.531 323.883 161.5C319.859 161.5 309.318 169.468 305.365 172.289ZM278.594 277.688C278.916 277.745 279.114 277.31 279.407 277.165C286.826 273.501 294.563 270.73 302.617 268.852C302.852 268.796 303.04 268.684 303.141 268.539C303.333 268.258 303.198 268.13 302.734 268.156C300.641 268.255 296.411 269.497 290.047 271.883C285.38 273.633 281.563 275.456 278.594 277.352C278.323 277.529 278.323 277.641 278.594 277.688V277.688ZM484.689 404.823C484.69 404.719 484.649 404.619 484.576 404.546C484.503 404.472 484.404 404.43 484.301 404.43L484.269 404.43C484.218 404.43 484.167 404.439 484.12 404.459C484.072 404.478 484.029 404.507 483.993 404.543C483.956 404.579 483.927 404.622 483.907 404.669C483.887 404.716 483.877 404.767 483.877 404.818L483.748 429.365C483.748 429.469 483.788 429.568 483.861 429.642C483.934 429.715 484.033 429.757 484.137 429.758L484.168 429.758C484.219 429.758 484.27 429.748 484.318 429.729C484.365 429.709 484.408 429.681 484.445 429.645C484.481 429.609 484.51 429.566 484.53 429.518C484.55 429.471 484.56 429.42 484.561 429.369L484.689 404.823ZM484.328 430.719C484.289 430.719 484.251 430.754 484.223 430.817C484.195 430.88 484.18 430.966 484.18 431.055V585.5C484.18 585.781 484.266 585.833 484.438 585.656C511.836 558.383 530.664 526.539 537.906 488.094C540.005 476.953 543.047 457.945 547.031 431.07C547.039 431.021 547.035 430.971 547.018 430.924C547.002 430.876 546.974 430.832 546.936 430.794C546.898 430.756 546.851 430.726 546.799 430.705C546.747 430.684 546.69 430.672 546.633 430.672L484.328 430.719ZM254.617 431.301C254.613 431.274 254.604 431.249 254.59 431.226C254.576 431.203 254.558 431.183 254.536 431.168C254.515 431.152 254.49 431.141 254.464 431.134C254.438 431.128 254.411 431.127 254.385 431.131L254.292 431.145C254.266 431.149 254.241 431.159 254.218 431.172C254.195 431.186 254.175 431.204 254.16 431.226C254.144 431.247 254.133 431.272 254.126 431.298C254.12 431.324 254.119 431.351 254.123 431.377L257.852 455.465C257.856 455.491 257.865 455.517 257.879 455.54C257.893 455.562 257.911 455.582 257.933 455.598C257.954 455.614 257.979 455.625 258.004 455.631C258.03 455.638 258.057 455.639 258.084 455.635L258.176 455.62C258.203 455.616 258.228 455.607 258.251 455.593C258.274 455.579 258.293 455.561 258.309 455.54C258.325 455.518 258.336 455.494 258.343 455.468C258.349 455.442 258.35 455.415 258.346 455.389L254.617 431.301ZM476.758 593.555C475.602 594.268 474.646 595.185 473.891 596.305C473.646 596.669 473.677 596.695 473.984 596.383L476.758 593.555C477.232 593.299 477.63 592.964 477.953 592.547C478.156 592.292 478.104 592.221 477.797 592.336C477.286 592.529 476.94 592.935 476.758 593.555ZM467.156 603.398C467.255 603.32 467.336 603.227 467.398 603.117C467.57 602.81 467.497 602.745 467.18 602.922C466.763 603.156 466.435 603.477 466.195 603.883C466.07 604.096 466.143 604.169 466.414 604.102C466.549 604.065 466.661 603.982 466.75 603.852C466.87 603.669 467.005 603.518 467.156 603.398ZM458.547 611.477C458.391 611.628 458.271 611.766 458.187 611.891C457.901 612.344 457.945 612.372 458.32 611.977C461.18 608.997 461.255 608.831 458.547 611.477Z" fill="#0F0F0F"/>
<path d="M276.789 195.898L277.148 195.93C277.185 196.086 277.188 196.234 277.156 196.375C277.047 196.87 276.992 197.12 276.992 197.125L276.875 278.078C276.875 278.207 276.845 278.332 276.789 278.44C276.733 278.548 276.652 278.636 276.555 278.695C265.841 285.44 257.328 294.312 251.016 305.312C250.998 305.344 250.988 305.38 250.986 305.416C250.985 305.453 250.993 305.488 251.009 305.52C251.024 305.551 251.048 305.578 251.076 305.596C251.105 305.614 251.138 305.624 251.172 305.625C262.234 305.758 274.359 305.547 284.422 305.586C314.417 305.706 344.411 305.646 374.406 305.406C374.445 305.407 374.482 305.398 374.516 305.378C374.549 305.359 374.576 305.33 374.595 305.295C374.614 305.26 374.624 305.221 374.624 305.18C374.624 305.139 374.613 305.098 374.594 305.063C360.359 280.289 334.219 264.883 305.289 268.086C305.24 268.091 305.19 268.086 305.143 268.071C305.095 268.056 305.052 268.031 305.015 267.998C304.978 267.965 304.948 267.924 304.928 267.879C304.908 267.833 304.898 267.784 304.898 267.734L304.883 173.016L305.078 172.492C308.781 169.875 319.758 161.5 323.883 161.5C374.471 161.531 425.036 161.576 475.578 161.633C477.805 161.641 479.563 161.336 481.609 162.516C493.594 169.443 504.294 176.911 513.711 184.922C544.68 211.258 562.375 250.258 564.047 290.82C564.516 302.031 564.023 312.344 562.531 324.164C559.198 350.581 555.451 376.94 551.289 403.242C551.267 403.373 551.204 403.492 551.111 403.578C551.018 403.663 550.901 403.711 550.781 403.711L484.375 403.719C484.323 403.719 484.274 403.677 484.237 403.602C484.2 403.527 484.18 403.426 484.18 403.32V376.758C484.18 376.665 484.144 376.575 484.081 376.509C484.018 376.443 483.933 376.406 483.844 376.406L457.031 376.391C456.932 376.391 456.836 376.434 456.766 376.512C456.696 376.59 456.656 376.695 456.656 376.805C456.602 455.43 456.203 534.078 456.453 612.695C456.456 612.821 456.431 612.948 456.382 613.067C456.332 613.187 456.258 613.297 456.164 613.391L438.812 630.797C438.729 630.883 438.622 630.949 438.498 630.992C438.374 631.036 438.236 631.054 438.094 631.047C432.948 630.839 426.094 630.828 417.531 631.016C409.401 631.193 391.242 631.148 363.055 630.883C362.931 630.883 362.808 630.858 362.692 630.81C362.577 630.762 362.472 630.691 362.383 630.602C340.117 608.456 321.779 589.484 307.367 573.687C284.844 549.008 269.313 517.789 263.43 484.898C261.846 476.055 260.305 467.063 258.805 457.922C258.794 457.861 258.796 457.798 258.81 457.738C258.824 457.678 258.85 457.622 258.886 457.575C258.921 457.527 258.966 457.489 259.017 457.463C259.068 457.436 259.123 457.422 259.18 457.422L304.641 457.43C304.748 457.43 304.852 457.388 304.928 457.313C305.004 457.238 305.047 457.137 305.047 457.031L304.859 429.687C304.859 429.584 304.821 429.485 304.752 429.411C304.683 429.338 304.59 429.297 304.492 429.297H254.492C254.383 429.297 254.278 429.257 254.193 429.183C254.109 429.108 254.051 429.005 254.031 428.891C248.688 396.615 243.664 362.784 238.961 327.398C232.594 279.453 242.328 231.547 276.789 195.898ZM503.914 188.812C503.914 188.759 503.893 188.707 503.855 188.669C503.816 188.631 503.765 188.609 503.711 188.609H402.539C402.485 188.609 402.434 188.631 402.395 188.669C402.357 188.707 402.336 188.759 402.336 188.812V215.625C402.336 215.679 402.357 215.731 402.395 215.769C402.434 215.807 402.485 215.828 402.539 215.828H503.711C503.765 215.828 503.816 215.807 503.855 215.769C503.893 215.731 503.914 215.679 503.914 215.625V188.812ZM414.5 463.625C414.443 395.766 414.43 327.909 414.461 260.055C414.461 257.195 414.164 253.687 414.203 250.531C414.204 250.485 414.193 250.438 414.169 250.395C414.145 250.351 414.109 250.312 414.064 250.278C414.019 250.245 413.965 250.218 413.906 250.2C413.847 250.182 413.783 250.172 413.719 250.172L386.914 250.187C386.8 250.187 386.691 250.229 386.61 250.304C386.53 250.379 386.484 250.48 386.484 250.586L386.328 463.672C386.328 463.721 386.318 463.769 386.298 463.814C386.279 463.859 386.25 463.9 386.213 463.934C386.177 463.969 386.134 463.995 386.086 464.013C386.039 464.031 385.988 464.04 385.937 464.039L354.297 463.812C353.818 463.807 353.766 463.945 354.141 464.227L385.875 488.156C386.077 488.309 386.24 488.506 386.353 488.731C386.465 488.956 386.524 489.203 386.523 489.453V515.43C386.523 515.669 386.628 515.706 386.836 515.539C408.518 498.164 430.396 481.039 452.469 464.164C452.714 463.982 452.737 463.891 452.539 463.891L414.844 464.023C414.753 464.023 414.665 463.981 414.601 463.907C414.536 463.832 414.5 463.731 414.5 463.625ZM551.562 305.055C521.5 256.453 457.312 256.133 427.531 305.289C427.38 305.534 427.451 305.656 427.742 305.656C468.93 305.672 510.141 305.789 551.383 305.391C551.643 305.391 551.703 305.279 551.562 305.055ZM250.305 337.359C261.891 365.531 290.211 382.125 320.25 379.445C345.5 377.203 366.656 360.594 376.93 337.734C376.972 337.642 376.989 337.541 376.981 337.441C376.973 337.34 376.94 337.242 376.884 337.158C376.828 337.073 376.751 337.003 376.661 336.955C376.57 336.907 376.469 336.882 376.367 336.883L250.586 336.898C250.534 336.898 250.484 336.911 250.439 336.936C250.394 336.962 250.355 336.999 250.328 337.045C250.3 337.09 250.283 337.143 250.279 337.198C250.275 337.253 250.284 337.308 250.305 337.359ZM428.523 339.258C453.914 387.859 521.883 387.367 547.664 339.555C547.684 339.518 547.695 339.477 547.696 339.435C547.696 339.394 547.686 339.353 547.666 339.316C547.647 339.28 547.618 339.25 547.583 339.229C547.549 339.208 547.509 339.196 547.469 339.195C542.078 339.034 534.768 339.034 525.539 339.195C511.831 339.44 481.393 339.409 434.227 339.102C431.508 339.086 429.674 339.036 428.727 338.953C428.471 338.932 428.404 339.034 428.523 339.258ZM343.516 543.25C351.281 543.641 358.68 543.383 365.336 543.367C394.133 543.289 422.937 543.352 451.734 543.305C451.995 543.305 452.034 543.211 451.852 543.023C422.258 512.867 373.07 512.391 343.414 543.008C343.268 543.159 343.302 543.24 343.516 543.25Z" fill="#F7F6F6"/>
<path d="M305.078 172.492L304.883 173.016C304.331 172.922 303.917 173.055 303.641 173.414C303.438 173.685 303.263 173.862 303.117 173.945C301.68 174.789 300.276 175.677 298.906 176.609C298.516 176.875 298.586 176.547 298.773 176.398C300.518 175.034 302.313 173.732 304.156 172.492C304.222 172.448 304.307 172.423 304.407 172.417C304.506 172.412 304.615 172.427 304.727 172.461C304.836 172.497 304.953 172.508 305.078 172.492Z" fill="#252525"/>
<path d="M277.148 195.93L276.789 195.898C279.497 192.425 282.695 189.5 286.383 187.125C286.612 186.979 286.625 186.99 286.422 187.156C283.115 189.859 280.023 192.784 277.148 195.93Z" fill="#252525"/>
<path d="M503.711 188.609H402.539C402.427 188.609 402.336 188.7 402.336 188.812V215.625C402.336 215.737 402.427 215.828 402.539 215.828H503.711C503.823 215.828 503.914 215.737 503.914 215.625V188.812C503.914 188.7 503.823 188.609 503.711 188.609Z" fill="#0F0F0F"/>
<path d="M414.844 464.023L452.539 463.891C452.737 463.891 452.714 463.982 452.469 464.164C430.396 481.039 408.518 498.164 386.836 515.539C386.628 515.706 386.523 515.669 386.523 515.43V489.453C386.524 489.203 386.465 488.956 386.353 488.731C386.24 488.506 386.077 488.309 385.875 488.156L354.141 464.227C353.766 463.945 353.818 463.807 354.297 463.812L385.938 464.039C385.988 464.04 386.039 464.031 386.086 464.013C386.134 463.995 386.177 463.969 386.213 463.934C386.25 463.9 386.279 463.859 386.298 463.814C386.318 463.769 386.328 463.721 386.328 463.672L386.484 250.586C386.484 250.48 386.53 250.379 386.61 250.304C386.691 250.229 386.8 250.187 386.914 250.187L413.719 250.172C413.783 250.172 413.847 250.182 413.906 250.2C413.965 250.218 414.019 250.245 414.064 250.278C414.109 250.312 414.145 250.351 414.169 250.395C414.193 250.438 414.204 250.485 414.203 250.531C414.164 253.687 414.461 257.195 414.461 260.055C414.43 327.909 414.443 395.766 414.5 463.625C414.5 463.731 414.536 463.832 414.601 463.907C414.665 463.981 414.753 464.023 414.844 464.023ZM414.75 465.487C414.75 465.46 414.745 465.434 414.735 465.409C414.725 465.384 414.71 465.362 414.691 465.343C414.673 465.324 414.651 465.308 414.626 465.298C414.601 465.288 414.575 465.282 414.548 465.282L414.517 465.282C414.49 465.281 414.464 465.286 414.439 465.296C414.414 465.306 414.392 465.321 414.373 465.34C414.354 465.359 414.339 465.381 414.328 465.405C414.318 465.43 414.312 465.456 414.312 465.483L414.094 490.482C414.094 490.509 414.099 490.535 414.109 490.56C414.119 490.585 414.134 490.607 414.152 490.626C414.171 490.645 414.193 490.66 414.218 490.671C414.242 490.681 414.269 490.687 414.295 490.687L414.327 490.687C414.353 490.687 414.38 490.682 414.405 490.672C414.429 490.662 414.452 490.648 414.471 490.629C414.49 490.61 414.505 490.588 414.515 490.563C414.526 490.539 414.531 490.512 414.532 490.486L414.75 465.487Z" fill="#0F0F0F"/>
<path d="M278.953 277.391C278.859 277.614 278.74 277.713 278.594 277.687C278.323 277.641 278.323 277.529 278.594 277.351C281.562 275.456 285.38 273.633 290.047 271.883C296.411 269.497 300.641 268.255 302.734 268.156C303.198 268.13 303.333 268.258 303.141 268.539C303.04 268.684 302.852 268.796 302.617 268.851C294.398 270.768 286.51 273.614 278.953 277.391Z" fill="#252525"/>
<path d="M427.531 305.289C457.312 256.133 521.5 256.453 551.563 305.055C551.703 305.279 551.643 305.391 551.383 305.391C510.141 305.789 468.93 305.672 427.742 305.656C427.451 305.656 427.38 305.534 427.531 305.289Z" fill="#0F0F0F"/>
<path d="M320.25 379.445C290.211 382.125 261.891 365.531 250.305 337.359C250.284 337.308 250.275 337.253 250.279 337.198C250.283 337.143 250.3 337.09 250.328 337.045C250.355 336.999 250.394 336.962 250.439 336.936C250.484 336.911 250.534 336.898 250.586 336.898L376.367 336.883C376.469 336.882 376.57 336.907 376.661 336.955C376.751 337.003 376.828 337.073 376.884 337.158C376.94 337.242 376.973 337.34 376.981 337.441C376.989 337.541 376.972 337.642 376.93 337.734C366.656 360.594 345.5 377.203 320.25 379.445Z" fill="#0F0F0F"/>
<path d="M547.664 339.554C521.883 387.367 453.914 387.859 428.523 339.258C428.404 339.034 428.471 338.932 428.727 338.953C429.674 339.036 431.508 339.086 434.227 339.101C481.393 339.409 511.831 339.44 525.539 339.195C534.768 339.034 542.078 339.034 547.469 339.195C547.509 339.196 547.549 339.207 547.583 339.229C547.618 339.25 547.647 339.28 547.666 339.316C547.686 339.352 547.696 339.393 547.696 339.435C547.695 339.477 547.684 339.518 547.664 339.554Z" fill="#0F0F0F"/>
<path d="M484.301 404.43L484.269 404.43C484.054 404.429 483.878 404.603 483.877 404.818L483.748 429.365C483.747 429.581 483.921 429.756 484.137 429.758L484.168 429.758C484.384 429.759 484.56 429.585 484.561 429.369L484.689 404.823C484.69 404.607 484.516 404.431 484.301 404.43Z" fill="#252525"/>
<path d="M484.328 430.719L546.633 430.672C546.69 430.672 546.747 430.684 546.799 430.705C546.851 430.726 546.898 430.756 546.936 430.794C546.974 430.832 547.002 430.876 547.018 430.924C547.035 430.971 547.039 431.021 547.031 431.07C543.047 457.945 540.005 476.953 537.906 488.094C530.664 526.539 511.836 558.383 484.438 585.656C484.266 585.833 484.18 585.781 484.18 585.5V431.055C484.18 430.966 484.195 430.88 484.223 430.817C484.251 430.754 484.289 430.719 484.328 430.719Z" fill="#F7F6F6"/>
<path d="M254.385 431.131L254.292 431.145C254.182 431.162 254.106 431.266 254.123 431.377L257.852 455.465C257.869 455.576 257.973 455.652 258.084 455.635L258.176 455.62C258.287 455.603 258.363 455.499 258.346 455.389L254.617 431.301C254.6 431.19 254.496 431.114 254.385 431.131Z" fill="#252525"/>
<path d="M414.548 465.282L414.517 465.282C414.405 465.281 414.313 465.371 414.312 465.483L414.094 490.482C414.093 490.594 414.183 490.686 414.295 490.687L414.327 490.687C414.439 490.688 414.531 490.598 414.532 490.486L414.75 465.487C414.751 465.375 414.661 465.283 414.548 465.282Z" fill="#252525"/>
<path d="M343.516 543.25C343.302 543.239 343.268 543.159 343.414 543.008C373.07 512.391 422.258 512.867 451.852 543.023C452.034 543.211 451.995 543.305 451.734 543.305C422.937 543.351 394.133 543.289 365.336 543.367C358.68 543.383 351.281 543.641 343.516 543.25Z" fill="#0F0F0F"/>
<path d="M476.758 593.555C476.94 592.935 477.286 592.529 477.797 592.336C478.104 592.221 478.156 592.292 477.953 592.547C477.63 592.964 477.232 593.3 476.758 593.555Z" fill="#252525"/>
<path d="M476.758 593.555L473.984 596.383C473.677 596.695 473.646 596.669 473.891 596.305C474.646 595.185 475.602 594.268 476.758 593.555Z" fill="#252525"/>
<path d="M466.75 603.852C466.661 603.982 466.549 604.065 466.414 604.102C466.143 604.169 466.07 604.096 466.195 603.883C466.435 603.476 466.763 603.156 467.18 602.922C467.497 602.745 467.57 602.81 467.398 603.117C467.336 603.227 467.255 603.32 467.156 603.398C467.005 603.518 466.87 603.669 466.75 603.852Z" fill="#252525"/>
<path d="M458.547 611.477C461.255 608.831 461.18 608.997 458.32 611.977C457.945 612.372 457.901 612.344 458.188 611.891C458.271 611.766 458.391 611.628 458.547 611.477Z" fill="#252525"/>
</g>
<defs>
<clipPath id="clip0_602_2">
<rect width="800" height="800" rx="40" fill="white"/>
</clipPath>
</defs>
</svg>
