<svg width="800" height="800" viewBox="0 0 800 800" fill="none" xmlns="http://www.w3.org/2000/svg">
<rect width="800" height="800" rx="400" fill="#FF720B"/>
<path fill-rule="evenodd" clip-rule="evenodd" d="M649.55 384.791C649.355 381.806 646.92 379.482 643.973 379.482C627.852 379.433 572.621 379.213 537.262 379.213C526.425 379.213 518.389 379.237 513.348 379.262C495.96 379.408 482.566 387.042 477.477 399.741C474.141 408.133 470.463 420.709 466.932 432.894L466.835 433.261C464.935 439.671 463.012 446.326 461.477 451.024C460.942 452.639 460.479 454.376 459.894 456.382C459.383 458.291 458.385 461.888 457.289 464.922C456.875 466.12 455.828 466.952 454.586 467.124C453.344 467.319 452.126 466.781 451.371 465.802C449.74 463.454 447.889 460.199 445.722 455.624C442.093 447.183 430.94 419.902 420.152 393.55L419.445 391.838C407.756 363.26 396.725 336.248 392.999 327.685L392.78 327.195C387.909 316.821 374.929 289.198 344.124 289.198H343.904C329.926 289.246 318.335 296.244 310.444 309.432C305.55 317.604 303.017 326.706 301.361 332.774L301.215 333.263C300.923 334.34 300.655 335.343 300.338 336.322C298.609 341.582 296.637 348.408 294.737 354.966L294.615 355.357C292.497 362.575 290.135 370.771 288.016 377.206C287.578 378.601 286.287 379.555 284.826 379.555C279.98 379.58 273.283 379.58 265.466 379.58C251.39 379.58 231.787 379.555 207.142 379.482C206.168 379.482 205.243 379.066 204.609 378.332C203.976 377.598 203.684 376.644 203.781 375.665C207.459 346.329 217.735 317.751 233.467 292.99C257.917 254.576 293.641 226.488 336.745 211.881C379.654 197.323 425.363 197.861 467.809 213.496C506.237 227.613 540.062 253.989 563.099 287.754C564.804 290.225 568.14 290.935 570.722 289.369L605.57 267.568C606.885 266.785 607.786 265.464 608.102 263.996C608.443 262.455 608.127 260.913 607.274 259.641C578.076 216.187 534.924 182.276 485.757 164.194C458.336 154.089 429.478 149 400.037 149C372.665 149 345.755 153.404 320.039 162.163C266.318 180.367 219.927 216.823 189.438 264.706C161.116 309.285 147.26 362.795 150.45 415.375C150.645 418.36 153.08 420.685 156.027 420.709C205.827 420.856 242.891 420.978 266.221 420.978C275.84 420.978 283.073 420.954 287.699 420.929C305.087 420.807 318.505 413.149 323.57 400.475C326.955 391.985 330.633 379.359 334.261 366.906C336.112 360.544 338.011 353.987 339.57 349.167C340.106 347.43 340.666 345.546 341.177 343.735C341.859 341.264 342.76 338.059 343.758 335.269C344.197 334.071 345.244 333.239 346.486 333.067C347.703 332.896 348.97 333.434 349.7 334.438C351.332 336.737 353.232 340.114 355.326 344.567C358.954 353.008 370.205 380.509 381.066 407.081L381.383 407.815C393.827 438.277 404.42 464.139 408.073 472.555L408.17 472.8C408.219 472.824 408.292 472.996 408.292 473.045C413.187 483.443 426.167 511.042 456.899 511.042H457.167C470.95 510.969 482.81 503.751 490.627 490.759C495.546 482.562 498.03 473.485 499.686 467.466L499.905 466.659C500.198 465.656 500.465 464.677 500.709 463.894C502.462 458.536 504.483 451.562 506.456 444.834L506.675 444.1C508.794 436.784 511.01 429.224 513.031 422.985C513.494 421.566 514.785 420.636 516.197 420.636C531.295 420.538 563.538 420.636 592.858 420.709C593.808 420.709 594.733 421.125 595.391 421.835C596.024 422.593 596.316 423.547 596.194 424.526C592.541 453.862 582.289 482.44 566.533 507.177C542.083 545.639 506.383 573.703 463.255 588.31C420.346 602.868 374.613 602.33 332.191 586.72C293.788 572.602 259.914 546.226 236.876 512.461C235.172 509.99 231.835 509.281 229.278 510.822L194.43 532.598C193.115 533.405 192.214 534.727 191.898 536.195C191.581 537.736 191.898 539.278 192.726 540.55C221.9 584.028 265.052 617.915 314.243 635.997C341.664 646.102 370.497 651.191 399.939 651.191H402.594C429.04 650.897 455.073 646.493 479.961 638.052C533.706 619.799 580.073 583.392 610.538 535.461C638.884 490.906 652.74 437.396 649.55 384.791Z" fill="white"/>
</svg>
