<svg width="800" height="800" viewBox="0 0 800 800" fill="none" xmlns="http://www.w3.org/2000/svg">
<rect width="800" height="800" rx="400" fill="#EB4E46"/>
<path d="M499.941 161L442.415 435.181C429.232 478.624 425.203 485.867 406.487 503.258C387.752 520.669 366.695 526.684 349.944 526.064C336.93 525.576 329.958 521.866 320.903 513.466C311.843 505.071 307.303 492.769 307.303 476.565C307.303 469.372 308.221 461.277 310.027 452.266L348.912 269.796H223.615L179.535 473.875C176.503 486.468 175 501.179 175 517.964C175 553.954 185.112 583.065 205.361 605.24C225.579 627.44 255.047 638.535 293.718 638.535C320.293 638.535 336.825 636.367 358.562 623.238C381.59 609.33 391.974 597.136 408.889 575.552L408.963 575.508H414.426L402.553 627.736H525.796L625 161H499.941Z" fill="white"/>
</svg>
